<svg t="1697472017965" class="icon" viewBox="0 0 1024 1024" version="1.1" xmlns="http://www.w3.org/2000/svg" p-id="9605" width="200" height="200"><path d="M384 170.688h42.688v42.688H384zM426.688 170.688h42.688v42.688h-42.688z" fill="#F19BAD" p-id="9606"></path><path d="M469.312 170.688H512v42.688h-42.688zM298.688 213.312h42.688V256h-42.688z" fill="#F19BAD" p-id="9607"></path><path d="M341.312 213.312H384V256h-42.688zM384 213.312h42.688V256H384z" fill="#F19BAD" p-id="9608"></path><path d="M426.688 213.312h42.688V256h-42.688z" fill="#F2902F" p-id="9609"></path><path d="M469.312 213.312H512V256h-42.688zM298.688 256h42.688v42.688h-42.688z" fill="#F19BAD" p-id="9610"></path><path d="M341.312 256H384v42.688h-42.688zM384 256h42.688v42.688H384zM426.688 256h42.688v42.688h-42.688zM512 170.688h42.688v42.688H512z" fill="#F19BAD" p-id="9611"></path><path d="M512 213.312h42.688V256H512zM554.688 170.688h42.688v42.688h-42.688z" fill="#F19BAD" p-id="9612"></path><path d="M554.688 213.312h42.688V256h-42.688zM597.312 170.688H640v42.624h-42.688z" fill="#F19BAD" p-id="9613"></path><path d="M597.312 213.312H640V256h-42.688zM640 170.688h42.688v42.624H640zM469.312 42.688H512v42.688h-42.688z" fill="#F19BAD" p-id="9614"></path><path d="M426.688 85.312h42.688V128h-42.688z" fill="#F19BAD" p-id="9615"></path><path d="M469.312 85.312H512V128h-42.688zM512 85.312h42.688V128H512zM554.688 85.312h42.688V128h-42.688zM426.688 128h42.688v42.688h-42.688z" fill="#F19BAD" p-id="9616"></path><path d="M469.312 128H512v42.688h-42.688zM512 128h42.688v42.688H512z" fill="#F19BAD" p-id="9617"></path><path d="M554.688 128h42.688v42.688h-42.688z" fill="#F2902F" p-id="9618"></path><path d="M597.312 128H640v42.688h-42.688zM640 128h42.688v42.688H640z" fill="#F19BAD" p-id="9619"></path><path d="M469.312 298.688H512v42.688h-42.688zM512 298.688h42.688v42.688H512zM554.688 298.688h42.688v42.688h-42.688z" fill="#ED7F9D" p-id="9620"></path><path d="M597.312 298.688H640v42.688h-42.688zM640 256h42.688v42.688H640zM682.688 298.688h42.688v42.688h-42.688zM256 384h42.688v42.688H256z" fill="#ED7F9D" p-id="9621"></path><path d="M298.688 384h42.688v42.688h-42.688z" fill="#ED6B2C" p-id="9622"></path><path d="M341.312 384H384v42.688h-42.688zM384 384h42.688v42.688H384zM426.688 384h42.688v42.688h-42.688z" fill="#ED7F9D" p-id="9623"></path><path d="M469.312 384H512v42.688h-42.688zM256 426.688h42.688v42.688H256zM298.688 426.688h42.688v42.688h-42.688z" fill="#ED7F9D" p-id="9624"></path><path d="M341.312 426.688H384v42.688h-42.688zM384 426.688h42.688v42.688H384zM426.688 426.688h42.688v42.688h-42.688z" fill="#ED7F9D" p-id="9625"></path><path d="M469.312 426.688H512v42.688h-42.688zM298.688 469.312h42.688V512h-42.688zM384 469.312h42.688V512H384z" fill="#ED7F9D" p-id="9626"></path><path d="M426.688 469.312h42.688V512h-42.688z" fill="#ED6B2C" p-id="9627"></path><path d="M512 384h42.688v42.688H512zM512 426.688h42.688v42.688H512zM298.688 512h42.688v42.688h-42.688zM384 512h42.688v42.688H384zM554.688 384h42.688v42.688h-42.688zM554.688 426.688h42.688v42.688h-42.688z" fill="#ED7F9D" p-id="9628"></path><path d="M597.312 384H640v42.688h-42.688zM597.312 426.688H640v42.688h-42.688zM298.688 341.312h42.688V384h-42.688z" fill="#ED7F9D" p-id="9629"></path><path d="M341.312 341.312H384V384h-42.688zM384 341.312h42.688V384H384zM426.688 341.312h42.688V384h-42.688z" fill="#ED7F9D" p-id="9630"></path><path d="M469.312 341.312H512V384h-42.688zM512 341.312h42.688V384H512z" fill="#ED7F9D" p-id="9631"></path><path d="M554.688 341.312h42.688V384h-42.688z" fill="#ED6B2C" p-id="9632"></path><path d="M597.312 341.312H640V384h-42.688zM640 298.688h42.688v42.688H640z" fill="#ED7F9D" p-id="9633"></path><path d="M640 341.312h42.688V384H640zM640 384h42.688v42.688H640zM682.688 341.312h42.688V384h-42.688zM256 469.312h42.688V512H256zM341.312 469.312H384V512h-42.688zM341.312 512H384v42.688h-42.688z" fill="#ED7F9D" p-id="9634"></path><path d="M682.688 469.312h42.688V512h-42.688zM725.312 384H768v42.688h-42.688z" fill="#E95389" p-id="9635"></path><path d="M725.312 426.688H768v42.688h-42.688z" fill="#E95389" p-id="9636"></path><path d="M725.312 469.312H768V512h-42.688zM682.688 512h42.688v42.688h-42.688zM554.688 512h42.688v42.688h-42.688z" fill="#E95389" p-id="9637"></path><path d="M597.312 512H640v42.688h-42.688zM640 469.312h42.688V512H640zM640 512h42.688v42.688H640zM469.312 512H512v42.688h-42.688zM512 512h42.688v42.688H512z" fill="#E95389" p-id="9638"></path><path d="M682.688 597.312h42.688V640h-42.688zM298.688 597.312h42.688V640h-42.688zM426.688 597.312h42.688V640h-42.688zM512 597.312h42.688V640H512zM341.312 640H384v42.688h-42.688zM384 640h42.688v42.688H384z" fill="#FCCD48" p-id="9639"></path><path d="M426.688 640h42.688v42.688h-42.688z" fill="#F7B345" p-id="9640"></path><path d="M469.312 640H512v42.688h-42.688z" fill="#FCCD48" p-id="9641"></path><path d="M512 640h42.688v42.688H512z" fill="#F7B345" p-id="9642"></path><path d="M597.312 597.312H640V640h-42.688zM554.688 640h42.688v42.688h-42.688z" fill="#FCCD48" p-id="9643"></path><path d="M597.312 640H640v42.688h-42.688z" fill="#F7B345" p-id="9644"></path><path d="M341.312 682.688H384v42.688h-42.688zM384 682.688h42.688v42.688H384zM426.688 682.688h42.688v42.688h-42.688z" fill="#FCCD48" p-id="9645"></path><path d="M469.312 682.688H512v42.688h-42.688z" fill="#F7B345" p-id="9646"></path><path d="M512 682.688h42.688v42.688H512zM554.688 682.688h42.688v42.688h-42.688z" fill="#FCCD48" p-id="9647"></path><path d="M597.312 682.688H640v42.688h-42.688zM384 725.312h42.688V768H384z" fill="#FCCD48" p-id="9648"></path><path d="M426.688 725.312h42.688V768h-42.688z" fill="#F7B345" p-id="9649"></path><path d="M469.312 725.312H512V768h-42.688z" fill="#FCCD48" p-id="9650"></path><path d="M384 768h42.688v42.688H384z" fill="#F7B345" p-id="9651"></path><path d="M426.688 768h42.688v42.688h-42.688z" fill="#FCCD48" p-id="9652"></path><path d="M469.312 768H512v42.688h-42.688z" fill="#FCCD48" p-id="9653"></path><path d="M512 725.312h42.688V768H512z" fill="#F7B345" p-id="9654"></path><path d="M512 768h42.688v42.688H512zM554.688 725.312h42.688V768h-42.688z" fill="#FCCD48" p-id="9655"></path><path d="M426.688 810.688h42.688v42.688h-42.688z" fill="#F7B345" p-id="9656"></path><path d="M469.312 810.688H512v42.688h-42.688zM597.312 768H640v42.688h-42.688zM554.688 810.688h42.688v42.688h-42.688zM512 853.312h42.688V896H512z" fill="#FCCD48" p-id="9657"></path><path d="M554.688 853.312h42.688V896h-42.688zM469.312 896H512v42.688h-42.688zM469.312 938.688H512v42.688h-42.688z" fill="#FCCD48" p-id="9658"></path><path d="M512 896h42.688v42.688H512z" fill="#F7B345" p-id="9659"></path><path d="M512 938.688h42.688v42.688H512z" fill="#FCCD48" p-id="9660"></path><path d="M512 810.688h42.688v42.688H512zM554.688 768h42.688v42.688h-42.688zM597.312 725.312H640V768h-42.688z" fill="#F7B345" p-id="9661"></path><path d="M426.688 853.312h42.688V896h-42.688z" fill="#FCCD48" p-id="9662"></path><path d="M469.312 853.312H512V896h-42.688z" fill="#F7B345" p-id="9663"></path><path d="M640 597.312h42.688V640H640zM640 640h42.688v42.688H640z" fill="#FCCD48" p-id="9664"></path><path d="M640 682.688h42.688v42.688H640z" fill="#F7B345" p-id="9665"></path><path d="M341.312 597.312H384V640h-42.688z" fill="#FCCD48" p-id="9666"></path><path d="M384 597.312h42.688V640H384z" fill="#F7B345" p-id="9667"></path><path d="M469.312 597.312H512V640h-42.688z" fill="#FCCD48" p-id="9668"></path><path d="M554.688 597.312h42.688V640h-42.688z" fill="#F7B345" p-id="9669"></path><path d="M256 512h42.688v42.688H256zM554.688 469.312h42.688V512h-42.688zM256 554.688h42.688v42.688H256zM341.312 554.688H384v42.688h-42.688zM469.312 554.688H512v42.688h-42.688z" p-id="9670"></path><path d="M256 597.312h42.688V640H256zM554.688 554.688h42.688v42.688h-42.688zM341.312 768H384v42.688h-42.688zM384 810.688h42.688v42.688H384zM469.312 0H512v42.688h-42.688zM384 128h42.688v42.688H384zM256 341.312h42.688V384H256zM640 426.688h42.688v42.688H640zM640 554.688h42.688v42.688H640zM682.688 128h42.688v42.688h-42.688zM682.688 256h42.688v42.688h-42.688zM725.312 341.312H768V384h-42.688zM640 725.312h42.688V768H640zM640 768h42.688v42.688H640zM469.312 981.312H512V1024h-42.688zM512 981.312h42.688V1024H512zM469.312 469.312H512V512h-42.688zM213.312 469.312H256V512h-42.688zM512 469.312h42.688V512H512zM426.688 512h42.688v42.688h-42.688zM597.312 469.312H640V512h-42.688zM298.688 554.688h42.688v42.688h-42.688zM384 554.688h42.688v42.688H384zM426.688 554.688h42.688v42.688h-42.688zM512 554.688h42.688v42.688H512zM298.688 640h42.688v42.688h-42.688z" p-id="9671"></path><path d="M597.312 554.688H640v42.688h-42.688zM298.688 682.688h42.688v42.688h-42.688z" p-id="9672"></path><path d="M341.312 725.312H384V768h-42.688zM597.312 810.688H640v42.688h-42.688zM384 853.312h42.688V896H384z" p-id="9673"></path><path d="M597.312 853.312H640V896h-42.688zM426.688 896h42.688v42.688h-42.688zM426.688 938.688h42.688v42.688h-42.688zM554.688 896h42.688v42.688h-42.688zM554.688 938.688h42.688v42.688h-42.688zM298.688 170.688h42.688v42.688h-42.688z" p-id="9674"></path><path d="M341.312 170.688H384v42.688h-42.688zM256 213.312h42.688V256H256zM256 256h42.688v42.688H256zM469.312 256H512v42.688h-42.688zM298.688 298.688h42.688v42.688h-42.688z" p-id="9675"></path><path d="M341.312 298.688H384v42.688h-42.688zM384 298.688h42.688v42.688H384zM426.688 298.688h42.688v42.688h-42.688zM512 256h42.688v42.688H512zM554.688 256h42.688v42.688h-42.688z" p-id="9676"></path><path d="M597.312 256H640v42.688h-42.688zM640 213.312h42.688V256H640zM682.688 170.688h42.688v42.624h-42.688zM426.688 42.688h42.688v42.688h-42.688zM384 85.312h42.688V128H384zM512 42.688h42.688v42.688H512zM554.688 42.688h42.688v42.688h-42.688z" p-id="9677"></path><path d="M597.312 85.312H640V128h-42.688zM640 85.312h42.688V128H640zM725.312 298.688H768v42.688h-42.688zM682.688 384h42.688v42.688h-42.688zM682.688 426.688h42.688v42.688h-42.688zM725.312 512H768v42.688h-42.688zM768 384h42.688v42.688H768zM768 426.688h42.688v42.688H768z" p-id="9678"></path><path d="M768 469.312h42.688V512H768zM682.688 554.688h42.688v42.688h-42.688z" p-id="9679"></path><path d="M725.312 554.688H768v42.688h-42.688z" p-id="9680"></path><path d="M725.312 597.312H768V640h-42.688zM682.688 640h42.688v42.688h-42.688zM682.688 682.688h42.688v42.688h-42.688zM213.312 384H256v42.688h-42.688zM213.312 426.688H256v42.688h-42.688z" p-id="9681"></path></svg>